%
M48
M72
T01C0.0150
T02C0.0400
T03C0.0500
T04C0.0700
%
T01
X1100Y1634
X2050Y1634
X3050Y1634
X1100Y2584
X1100Y3584
X1100Y4584
X1050Y5484
X3200Y5084
X3350Y4734
X5450Y4534
X5450Y4984
X6150Y4984
X6850Y4984
X6850Y4534
X6150Y4534
X6150Y5434
X6850Y5434
X8200Y5434
X9050Y5434
X10050Y5434
X8650Y4734
X8350Y4334
X8950Y4334
X9350Y3784
X10000Y3784
X9000Y3184
X8350Y3134
X8650Y2734
X8650Y2134
X8450Y1634
X9200Y1634
X10000Y1634
X7650Y1634
X6750Y1634
X6750Y2234
X6750Y2884
X6250Y2884
X5350Y3134
X4670Y3564
X3500Y2884
X7100Y3384
X7900Y3534
X5450Y5434
T02
X2550Y5095
X1550Y5095
X1550Y4095
X2550Y4095
X2550Y3095
X1550Y3095
X1550Y2095
X2550Y2095
T03
X8660Y3734
T04
X7656Y4737
X9664Y4737
X9664Y2730
X7656Y2730
M30
