G75*
%MOIN*%
%OFA0B0*%
%FSLAX25Y25*%
%IPPOS*%
%LPD*%
%AMOC8*
5,1,8,0,0,1.08239X$1,22.5*
%
%ADD10R,0.02400X0.01800*%
%ADD11R,0.03937X0.03937*%
%ADD12R,0.01181X0.02559*%
%ADD13R,0.02559X0.01181*%
%ADD14R,0.02400X0.02600*%
%ADD15R,0.02362X0.01969*%
%ADD16R,0.01969X0.02362*%
%ADD17R,0.06693X0.09449*%
%ADD18C,0.07500*%
%ADD19C,0.10500*%
%ADD20OC8,0.07400*%
%ADD21R,0.01800X0.02400*%
%ADD22R,0.00984X0.00787*%
%ADD23C,0.00800*%
%ADD24C,0.01200*%
%ADD25C,0.00600*%
%ADD26C,0.01000*%
%ADD27C,0.02900*%
%ADD28C,0.01600*%
D10*
X0034604Y0018435D03*
X0034604Y0022235D03*
X0062004Y0022235D03*
X0062004Y0018435D03*
D11*
X0043004Y0039335D03*
D12*
X0043004Y0046815D03*
X0044972Y0046815D03*
X0046941Y0046815D03*
X0041035Y0046815D03*
X0039067Y0046815D03*
X0039067Y0031855D03*
X0041035Y0031855D03*
X0043004Y0031855D03*
X0044972Y0031855D03*
X0046941Y0031855D03*
D13*
X0050484Y0035398D03*
X0050484Y0037367D03*
X0050484Y0039335D03*
X0050484Y0041304D03*
X0050484Y0043272D03*
X0035524Y0043272D03*
X0035524Y0041304D03*
X0035524Y0039335D03*
X0035524Y0037367D03*
X0035524Y0035398D03*
D14*
X0050404Y0049735D03*
X0050404Y0054335D03*
D15*
X0055904Y0041107D03*
X0055904Y0037563D03*
X0059804Y0037107D03*
X0059804Y0033563D03*
D16*
X0059832Y0041335D03*
X0063376Y0041335D03*
D17*
X0055487Y0022735D03*
X0040920Y0022735D03*
D18*
X0086604Y0037335D03*
D19*
X0096643Y0027296D03*
X0076565Y0027296D03*
X0076565Y0047374D03*
X0096643Y0047374D03*
D20*
X0025500Y0050953D03*
X0015500Y0050953D03*
X0015500Y0040953D03*
X0025500Y0040953D03*
X0025500Y0030953D03*
X0015500Y0030953D03*
X0015500Y0020953D03*
X0025500Y0020953D03*
D21*
X0063104Y0033335D03*
X0066904Y0033335D03*
X0066904Y0037535D03*
X0063104Y0037535D03*
X0066604Y0041335D03*
X0070404Y0041335D03*
X0046804Y0051035D03*
X0043004Y0051035D03*
X0039904Y0050335D03*
X0036104Y0050335D03*
X0043004Y0054335D03*
X0046804Y0054335D03*
D22*
X0070504Y0038975D03*
X0070504Y0037495D03*
D23*
X0070504Y0038975D02*
X0070504Y0041235D01*
X0063104Y0033335D02*
X0062876Y0032563D01*
X0050453Y0041235D02*
X0050484Y0041304D01*
X0047404Y0041235D02*
X0046708Y0040290D01*
X0046004Y0039335D01*
X0035524Y0035398D02*
X0035461Y0035335D01*
X0055487Y0022735D02*
X0056387Y0022235D01*
X0062004Y0016335D02*
X0034604Y0016335D01*
D24*
X0034604Y0018435D01*
X0043004Y0025835D02*
X0045004Y0027835D01*
X0045004Y0031855D01*
X0043004Y0031855D02*
X0043004Y0035335D01*
X0046704Y0035635D01*
X0050547Y0035335D02*
X0056004Y0035335D01*
X0057776Y0033563D01*
X0059804Y0033563D01*
X0060032Y0033335D02*
X0063104Y0033335D01*
X0059804Y0037107D02*
X0059802Y0037147D01*
X0059797Y0037186D01*
X0059788Y0037225D01*
X0059776Y0037263D01*
X0059761Y0037300D01*
X0059743Y0037336D01*
X0059721Y0037369D01*
X0059697Y0037401D01*
X0059670Y0037430D01*
X0059641Y0037457D01*
X0059609Y0037481D01*
X0059576Y0037503D01*
X0059540Y0037521D01*
X0059503Y0037536D01*
X0059465Y0037548D01*
X0059426Y0037557D01*
X0059387Y0037562D01*
X0059347Y0037564D01*
X0059347Y0037563D02*
X0055904Y0037563D01*
X0054807Y0037367D02*
X0050484Y0037367D01*
X0050484Y0039335D02*
X0053232Y0039335D01*
X0055904Y0041107D01*
X0059004Y0041107D01*
X0063376Y0041335D02*
X0066604Y0041335D01*
X0066904Y0037535D02*
X0066958Y0037481D01*
X0072404Y0039335D02*
X0084604Y0039335D01*
X0086604Y0037335D01*
X0072404Y0039335D02*
X0072317Y0039337D01*
X0072230Y0039343D01*
X0072143Y0039352D01*
X0072057Y0039365D01*
X0071971Y0039382D01*
X0071886Y0039403D01*
X0071803Y0039428D01*
X0071720Y0039456D01*
X0071639Y0039487D01*
X0071559Y0039522D01*
X0071481Y0039561D01*
X0071404Y0039603D01*
X0071329Y0039648D01*
X0071257Y0039697D01*
X0071186Y0039748D01*
X0071118Y0039803D01*
X0071053Y0039860D01*
X0070990Y0039921D01*
X0070929Y0039984D01*
X0070872Y0040049D01*
X0070817Y0040117D01*
X0070766Y0040188D01*
X0070717Y0040260D01*
X0070672Y0040335D01*
X0070630Y0040412D01*
X0070591Y0040490D01*
X0070556Y0040570D01*
X0070525Y0040651D01*
X0070497Y0040734D01*
X0070472Y0040817D01*
X0070451Y0040902D01*
X0070434Y0040988D01*
X0070421Y0041074D01*
X0070412Y0041161D01*
X0070406Y0041248D01*
X0070404Y0041335D01*
X0053504Y0042835D02*
X0053504Y0043335D01*
X0053503Y0042835D02*
X0053501Y0042757D01*
X0053495Y0042680D01*
X0053485Y0042603D01*
X0053472Y0042527D01*
X0053454Y0042451D01*
X0053433Y0042377D01*
X0053408Y0042303D01*
X0053379Y0042231D01*
X0053347Y0042161D01*
X0053311Y0042092D01*
X0053271Y0042025D01*
X0053229Y0041960D01*
X0053183Y0041898D01*
X0053134Y0041838D01*
X0053082Y0041780D01*
X0053027Y0041725D01*
X0052969Y0041673D01*
X0052909Y0041624D01*
X0052847Y0041578D01*
X0052782Y0041536D01*
X0052715Y0041496D01*
X0052646Y0041460D01*
X0052576Y0041428D01*
X0052504Y0041399D01*
X0052430Y0041374D01*
X0052356Y0041353D01*
X0052280Y0041335D01*
X0052204Y0041322D01*
X0052127Y0041312D01*
X0052050Y0041306D01*
X0051972Y0041304D01*
X0050484Y0041304D01*
X0046708Y0041304D01*
X0046708Y0040290D01*
X0044004Y0043335D02*
X0043004Y0044335D01*
X0042004Y0043335D01*
X0040004Y0043335D01*
X0039004Y0042335D01*
X0039004Y0035835D01*
X0041035Y0033804D01*
X0041035Y0031855D01*
X0043004Y0031855D02*
X0043004Y0029335D01*
X0046941Y0029398D02*
X0046941Y0031855D01*
X0046941Y0029398D02*
X0050004Y0026335D01*
X0053004Y0026335D01*
X0056387Y0022235D02*
X0062004Y0022235D01*
X0062004Y0018435D02*
X0062004Y0016335D01*
X0050484Y0043272D02*
X0050421Y0043335D01*
X0044004Y0043335D01*
X0043004Y0043335D01*
X0043004Y0044335D01*
X0043004Y0046815D01*
X0044972Y0046815D02*
X0044972Y0048204D01*
X0046804Y0051035D01*
X0043004Y0051035D02*
X0043004Y0047835D01*
X0041035Y0048704D02*
X0041035Y0046815D01*
X0039067Y0046815D02*
X0039067Y0046398D01*
X0041035Y0048704D02*
X0039904Y0050335D01*
X0043004Y0051835D02*
X0043004Y0054335D01*
X0046804Y0054335D02*
X0050404Y0054335D01*
X0050104Y0048935D02*
X0047984Y0046815D01*
X0046941Y0046815D01*
X0043004Y0043335D02*
X0042004Y0043335D01*
D25*
X0041035Y0046815D02*
X0041016Y0046835D01*
X0041004Y0046835D01*
X0043004Y0046815D02*
X0043004Y0047835D01*
X0040004Y0050335D02*
X0039904Y0050335D01*
X0043004Y0051035D02*
X0043004Y0051835D01*
X0050104Y0048935D02*
X0050404Y0049735D01*
X0035524Y0043272D02*
X0033067Y0043272D01*
X0030804Y0045935D01*
X0020482Y0045935D01*
X0015500Y0040953D01*
X0020282Y0035935D02*
X0015500Y0030953D01*
X0020282Y0035935D02*
X0029404Y0035935D01*
X0033004Y0039335D01*
X0035524Y0039335D01*
X0035524Y0041304D02*
X0025850Y0041304D01*
X0025500Y0040953D01*
X0033035Y0037367D02*
X0026622Y0030953D01*
X0025500Y0030953D01*
X0031004Y0033335D02*
X0031004Y0028335D01*
X0028804Y0025935D01*
X0020604Y0025935D01*
X0015622Y0020953D01*
X0015500Y0020953D01*
X0025500Y0020953D02*
X0026118Y0020335D01*
X0026004Y0020335D01*
X0025500Y0020953D02*
X0029282Y0024735D01*
X0029301Y0024735D01*
X0029322Y0024757D01*
X0029353Y0024758D01*
X0029671Y0025105D01*
X0032204Y0027638D01*
X0032204Y0027868D01*
X0032224Y0027891D01*
X0032204Y0028362D01*
X0032204Y0031535D01*
X0032524Y0031855D01*
X0039067Y0031855D01*
X0035461Y0035335D02*
X0033004Y0035335D01*
X0031004Y0033335D01*
X0033035Y0037367D02*
X0035524Y0037367D01*
X0050484Y0035398D02*
X0050547Y0035335D01*
X0054807Y0037367D02*
X0055904Y0037563D01*
X0056361Y0037107D01*
X0059004Y0041107D02*
X0059832Y0041335D01*
X0063104Y0037535D02*
X0063104Y0033335D01*
X0060032Y0033335D02*
X0059804Y0033563D01*
X0066904Y0037335D02*
X0066904Y0037535D01*
X0070464Y0037535D01*
X0070474Y0037534D01*
X0070484Y0037530D01*
X0070492Y0037523D01*
X0070499Y0037515D01*
X0070503Y0037505D01*
X0070504Y0037495D01*
X0040720Y0022235D02*
X0034604Y0022235D01*
X0034604Y0018435D02*
X0034604Y0018335D01*
D26*
X0009504Y0014835D02*
X0009504Y0055796D01*
X0012989Y0055796D01*
X0010300Y0053107D01*
X0010300Y0051453D01*
X0015000Y0051453D01*
X0015000Y0050453D01*
X0010300Y0050453D01*
X0010300Y0048799D01*
X0013146Y0045953D01*
X0010300Y0043107D01*
X0010300Y0038799D01*
X0013146Y0035953D01*
X0010300Y0033107D01*
X0010300Y0028799D01*
X0013146Y0025953D01*
X0010300Y0023107D01*
X0010300Y0018799D01*
X0013346Y0015753D01*
X0017654Y0015753D01*
X0020500Y0018599D01*
X0023346Y0015753D01*
X0027654Y0015753D01*
X0030700Y0018799D01*
X0030700Y0023107D01*
X0030482Y0023326D01*
X0030728Y0023595D01*
X0030971Y0023860D01*
X0031101Y0023990D01*
X0031122Y0024011D01*
X0032950Y0025838D01*
X0034004Y0026892D01*
X0034004Y0027168D01*
X0034055Y0027224D01*
X0034055Y0027224D01*
X0034055Y0027224D01*
X0034026Y0027892D01*
X0034004Y0028401D01*
X0034004Y0030055D01*
X0036976Y0030055D01*
X0036976Y0029954D01*
X0037855Y0029075D01*
X0042216Y0029075D01*
X0042904Y0029075D01*
X0042904Y0028960D01*
X0036953Y0028960D01*
X0036628Y0028635D01*
X0036173Y0028635D01*
X0035704Y0028166D01*
X0035704Y0024635D01*
X0032783Y0024635D01*
X0031904Y0023756D01*
X0031904Y0020714D01*
X0032283Y0020335D01*
X0032204Y0020256D01*
X0032006Y0019914D01*
X0031904Y0019533D01*
X0031904Y0018435D01*
X0031904Y0017338D01*
X0032006Y0016956D01*
X0032204Y0016614D01*
X0032483Y0016335D01*
X0032825Y0016137D01*
X0033206Y0016035D01*
X0034604Y0016035D01*
X0036001Y0016035D01*
X0036136Y0016071D01*
X0036173Y0016035D01*
X0060335Y0016035D01*
X0060393Y0016092D01*
X0060606Y0016035D01*
X0062004Y0016035D01*
X0063401Y0016035D01*
X0063783Y0016137D01*
X0064125Y0016335D01*
X0064404Y0016614D01*
X0064602Y0016956D01*
X0064704Y0017338D01*
X0064704Y0018435D01*
X0062004Y0018435D01*
X0062004Y0016035D01*
X0062004Y0018435D01*
X0062004Y0018435D01*
X0062004Y0018435D01*
X0064704Y0018435D01*
X0064704Y0019533D01*
X0064602Y0019914D01*
X0064404Y0020256D01*
X0064325Y0020335D01*
X0064704Y0020714D01*
X0064704Y0023756D01*
X0063825Y0024635D01*
X0060804Y0024635D01*
X0060804Y0028166D01*
X0060335Y0028635D01*
X0059780Y0028635D01*
X0059455Y0028960D01*
X0051520Y0028960D01*
X0051195Y0028635D01*
X0050674Y0028635D01*
X0049041Y0030268D01*
X0049041Y0032725D01*
X0049031Y0032734D01*
X0049031Y0033308D01*
X0049605Y0033308D01*
X0049677Y0033235D01*
X0055134Y0033235D01*
X0055676Y0032694D01*
X0056906Y0031463D01*
X0057617Y0031463D01*
X0058002Y0031079D01*
X0061139Y0031079D01*
X0061583Y0030635D01*
X0062696Y0030635D01*
X0063091Y0030518D01*
X0063306Y0030635D01*
X0064625Y0030635D01*
X0065004Y0031014D01*
X0065083Y0030935D01*
X0065425Y0030737D01*
X0065806Y0030635D01*
X0066904Y0030635D01*
X0068001Y0030635D01*
X0068383Y0030737D01*
X0068725Y0030935D01*
X0069004Y0031214D01*
X0069202Y0031556D01*
X0069304Y0031938D01*
X0069304Y0033335D01*
X0066904Y0033335D01*
X0066904Y0030635D01*
X0066904Y0033335D01*
X0066904Y0033335D01*
X0066904Y0033335D01*
X0069304Y0033335D01*
X0069304Y0034733D01*
X0069202Y0035114D01*
X0069016Y0035435D01*
X0069202Y0035756D01*
X0069221Y0035826D01*
X0069433Y0035704D01*
X0069814Y0035602D01*
X0070504Y0035602D01*
X0071194Y0035602D01*
X0071575Y0035704D01*
X0071917Y0035901D01*
X0072196Y0036181D01*
X0072394Y0036523D01*
X0072496Y0036904D01*
X0072496Y0037235D01*
X0081354Y0037235D01*
X0081354Y0036291D01*
X0082153Y0034361D01*
X0083630Y0032884D01*
X0085560Y0032085D01*
X0087648Y0032085D01*
X0089578Y0032884D01*
X0091055Y0034361D01*
X0091854Y0036291D01*
X0091854Y0038379D01*
X0091055Y0040309D01*
X0089578Y0041786D01*
X0087648Y0042585D01*
X0085560Y0042585D01*
X0083630Y0041786D01*
X0083279Y0041435D01*
X0079778Y0041435D01*
X0080323Y0041750D01*
X0081025Y0042288D01*
X0081651Y0042914D01*
X0082189Y0043616D01*
X0082632Y0044382D01*
X0082970Y0045200D01*
X0083199Y0046054D01*
X0083307Y0046874D01*
X0077065Y0046874D01*
X0077065Y0047874D01*
X0083307Y0047874D01*
X0083199Y0048694D01*
X0082970Y0049548D01*
X0082632Y0050366D01*
X0082189Y0051132D01*
X0081651Y0051834D01*
X0081025Y0052460D01*
X0080323Y0052999D01*
X0079557Y0053441D01*
X0078739Y0053780D01*
X0077885Y0054009D01*
X0077065Y0054117D01*
X0077065Y0047874D01*
X0076065Y0047874D01*
X0076065Y0046874D01*
X0069823Y0046874D01*
X0069930Y0046054D01*
X0070159Y0045200D01*
X0070498Y0044382D01*
X0070698Y0044035D01*
X0068883Y0044035D01*
X0068504Y0043656D01*
X0068125Y0044035D01*
X0065083Y0044035D01*
X0065022Y0043975D01*
X0064981Y0044016D01*
X0061770Y0044016D01*
X0061604Y0043850D01*
X0061438Y0044016D01*
X0058227Y0044016D01*
X0057754Y0043543D01*
X0057706Y0043591D01*
X0054102Y0043591D01*
X0053264Y0042753D01*
X0053264Y0044484D01*
X0052385Y0045363D01*
X0051364Y0045363D01*
X0051291Y0045435D01*
X0049574Y0045435D01*
X0050084Y0045946D01*
X0051074Y0046935D01*
X0052225Y0046935D01*
X0053104Y0047814D01*
X0053104Y0051656D01*
X0052725Y0052035D01*
X0052804Y0052114D01*
X0053002Y0052456D01*
X0053104Y0052838D01*
X0053104Y0054235D01*
X0050504Y0054235D01*
X0050504Y0054435D01*
X0053104Y0054435D01*
X0053104Y0055796D01*
X0101705Y0055796D01*
X0101705Y0051858D01*
X0101103Y0052460D01*
X0100401Y0052999D01*
X0099635Y0053441D01*
X0098817Y0053780D01*
X0097963Y0054009D01*
X0097143Y0054117D01*
X0097143Y0047874D01*
X0096143Y0047874D01*
X0096143Y0046874D01*
X0097143Y0046874D01*
X0097143Y0040632D01*
X0097963Y0040740D01*
X0098817Y0040969D01*
X0099635Y0041307D01*
X0100401Y0041750D01*
X0101103Y0042288D01*
X0101705Y0042890D01*
X0101705Y0031780D01*
X0101103Y0032382D01*
X0100401Y0032921D01*
X0099635Y0033363D01*
X0098817Y0033702D01*
X0097963Y0033931D01*
X0097143Y0034039D01*
X0097143Y0027796D01*
X0096143Y0027796D01*
X0096143Y0026796D01*
X0097143Y0026796D01*
X0097143Y0020554D01*
X0097963Y0020662D01*
X0098817Y0020891D01*
X0099635Y0021229D01*
X0100401Y0021672D01*
X0101103Y0022210D01*
X0101705Y0022812D01*
X0101705Y0014835D01*
X0009504Y0014835D01*
X0009504Y0015831D02*
X0013269Y0015831D01*
X0012270Y0016829D02*
X0009504Y0016829D01*
X0009504Y0017828D02*
X0011272Y0017828D01*
X0010300Y0018826D02*
X0009504Y0018826D01*
X0009504Y0019825D02*
X0010300Y0019825D01*
X0010300Y0020823D02*
X0009504Y0020823D01*
X0009504Y0021822D02*
X0010300Y0021822D01*
X0010300Y0022820D02*
X0009504Y0022820D01*
X0009504Y0023819D02*
X0011012Y0023819D01*
X0012010Y0024817D02*
X0009504Y0024817D01*
X0009504Y0025816D02*
X0013009Y0025816D01*
X0012285Y0026814D02*
X0009504Y0026814D01*
X0009504Y0027813D02*
X0011287Y0027813D01*
X0010300Y0028811D02*
X0009504Y0028811D01*
X0009504Y0029810D02*
X0010300Y0029810D01*
X0010300Y0030808D02*
X0009504Y0030808D01*
X0009504Y0031807D02*
X0010300Y0031807D01*
X0010300Y0032805D02*
X0009504Y0032805D01*
X0009504Y0033804D02*
X0010997Y0033804D01*
X0011995Y0034802D02*
X0009504Y0034802D01*
X0009504Y0035801D02*
X0012994Y0035801D01*
X0012300Y0036799D02*
X0009504Y0036799D01*
X0009504Y0037798D02*
X0011301Y0037798D01*
X0010303Y0038796D02*
X0009504Y0038796D01*
X0009504Y0039795D02*
X0010300Y0039795D01*
X0010300Y0040793D02*
X0009504Y0040793D01*
X0009504Y0041792D02*
X0010300Y0041792D01*
X0010300Y0042790D02*
X0009504Y0042790D01*
X0009504Y0043789D02*
X0010982Y0043789D01*
X0011980Y0044787D02*
X0009504Y0044787D01*
X0009504Y0045786D02*
X0012979Y0045786D01*
X0012315Y0046785D02*
X0009504Y0046785D01*
X0009504Y0047783D02*
X0011316Y0047783D01*
X0010318Y0048782D02*
X0009504Y0048782D01*
X0009504Y0049780D02*
X0010300Y0049780D01*
X0009504Y0050779D02*
X0015000Y0050779D01*
X0010300Y0051777D02*
X0009504Y0051777D01*
X0009504Y0052776D02*
X0010300Y0052776D01*
X0010967Y0053774D02*
X0009504Y0053774D01*
X0009504Y0054773D02*
X0011965Y0054773D01*
X0012964Y0055771D02*
X0009504Y0055771D01*
X0030700Y0052035D02*
X0030700Y0048799D01*
X0029636Y0047735D01*
X0030142Y0047735D01*
X0030206Y0047790D01*
X0030877Y0047735D01*
X0031550Y0047735D01*
X0031609Y0047676D01*
X0031693Y0047669D01*
X0032128Y0047156D01*
X0032604Y0046681D01*
X0032604Y0046597D01*
X0033653Y0045363D01*
X0036976Y0045363D01*
X0036976Y0046815D01*
X0038935Y0046815D01*
X0038935Y0046816D01*
X0036976Y0046816D01*
X0036976Y0047635D01*
X0036104Y0047635D01*
X0036104Y0050335D01*
X0036104Y0050335D01*
X0036104Y0047635D01*
X0035006Y0047635D01*
X0034625Y0047737D01*
X0034283Y0047935D01*
X0034004Y0048214D01*
X0033806Y0048556D01*
X0033704Y0048938D01*
X0033704Y0050335D01*
X0036104Y0050335D01*
X0036104Y0050335D01*
X0033704Y0050335D01*
X0033704Y0051733D01*
X0033785Y0052035D01*
X0030700Y0052035D01*
X0030700Y0051777D02*
X0033716Y0051777D01*
X0033704Y0050779D02*
X0030700Y0050779D01*
X0030700Y0049780D02*
X0033704Y0049780D01*
X0033746Y0048782D02*
X0030682Y0048782D01*
X0030287Y0047783D02*
X0034546Y0047783D01*
X0036104Y0047783D02*
X0036104Y0047783D01*
X0036104Y0048782D02*
X0036104Y0048782D01*
X0036104Y0049780D02*
X0036104Y0049780D01*
X0036976Y0046785D02*
X0032500Y0046785D01*
X0033293Y0045786D02*
X0036976Y0045786D01*
X0030199Y0047783D02*
X0029684Y0047783D01*
X0043004Y0049835D02*
X0043004Y0051035D01*
X0046804Y0051035D02*
X0046804Y0054335D01*
X0046804Y0051635D01*
X0046804Y0051035D01*
X0046804Y0051035D01*
X0046804Y0051777D02*
X0046804Y0051777D01*
X0046804Y0052776D02*
X0046804Y0052776D01*
X0046804Y0053774D02*
X0046804Y0053774D01*
X0046804Y0054335D02*
X0046804Y0054335D01*
X0046804Y0054335D01*
X0049204Y0054335D01*
X0049204Y0054235D01*
X0050304Y0054235D01*
X0050304Y0054435D01*
X0049204Y0054435D01*
X0049204Y0054335D01*
X0046804Y0054335D01*
X0053104Y0054773D02*
X0101705Y0054773D01*
X0101705Y0053774D02*
X0098831Y0053774D01*
X0097143Y0053774D02*
X0096143Y0053774D01*
X0096143Y0054117D02*
X0095323Y0054009D01*
X0094469Y0053780D01*
X0093651Y0053441D01*
X0092885Y0052999D01*
X0092183Y0052460D01*
X0091557Y0051834D01*
X0091018Y0051132D01*
X0090576Y0050366D01*
X0090237Y0049548D01*
X0090008Y0048694D01*
X0089900Y0047874D01*
X0096143Y0047874D01*
X0096143Y0054117D01*
X0096143Y0052776D02*
X0097143Y0052776D01*
X0097143Y0051777D02*
X0096143Y0051777D01*
X0096143Y0050779D02*
X0097143Y0050779D01*
X0097143Y0049780D02*
X0096143Y0049780D01*
X0096143Y0048782D02*
X0097143Y0048782D01*
X0096143Y0047783D02*
X0077065Y0047783D01*
X0077065Y0048782D02*
X0076065Y0048782D01*
X0076065Y0047874D02*
X0076065Y0054117D01*
X0075245Y0054009D01*
X0074391Y0053780D01*
X0073573Y0053441D01*
X0072807Y0052999D01*
X0072105Y0052460D01*
X0071479Y0051834D01*
X0070941Y0051132D01*
X0070498Y0050366D01*
X0070159Y0049548D01*
X0069930Y0048694D01*
X0069823Y0047874D01*
X0076065Y0047874D01*
X0076065Y0047783D02*
X0053073Y0047783D01*
X0053104Y0048782D02*
X0069954Y0048782D01*
X0070255Y0049780D02*
X0053104Y0049780D01*
X0053104Y0050779D02*
X0070736Y0050779D01*
X0071435Y0051777D02*
X0052983Y0051777D01*
X0053087Y0052776D02*
X0072516Y0052776D01*
X0074377Y0053774D02*
X0053104Y0053774D01*
X0053104Y0055771D02*
X0101705Y0055771D01*
X0101705Y0052776D02*
X0100692Y0052776D01*
X0094455Y0053774D02*
X0078753Y0053774D01*
X0077065Y0053774D02*
X0076065Y0053774D01*
X0076065Y0052776D02*
X0077065Y0052776D01*
X0077065Y0051777D02*
X0076065Y0051777D01*
X0076065Y0050779D02*
X0077065Y0050779D01*
X0077065Y0049780D02*
X0076065Y0049780D01*
X0069834Y0046785D02*
X0050923Y0046785D01*
X0049925Y0045786D02*
X0070002Y0045786D01*
X0070330Y0044787D02*
X0052960Y0044787D01*
X0053264Y0043789D02*
X0057999Y0043789D01*
X0053301Y0042790D02*
X0053264Y0042790D01*
X0047705Y0041235D02*
X0047705Y0034634D01*
X0043135Y0034634D01*
X0043135Y0034673D01*
X0041942Y0035867D01*
X0042520Y0035867D01*
X0042520Y0038851D01*
X0043488Y0038851D01*
X0043488Y0035867D01*
X0045170Y0035867D01*
X0045551Y0035969D01*
X0045893Y0036166D01*
X0046173Y0036446D01*
X0046370Y0036788D01*
X0046472Y0037169D01*
X0046472Y0038851D01*
X0043488Y0038851D01*
X0043488Y0039819D01*
X0046472Y0039819D01*
X0046472Y0041235D01*
X0047705Y0041235D01*
X0047705Y0040793D02*
X0046472Y0040793D01*
X0047705Y0039795D02*
X0043488Y0039795D01*
X0043488Y0038796D02*
X0042520Y0038796D01*
X0042520Y0037798D02*
X0043488Y0037798D01*
X0043488Y0036799D02*
X0042520Y0036799D01*
X0042008Y0035801D02*
X0047705Y0035801D01*
X0047705Y0036799D02*
X0046373Y0036799D01*
X0046472Y0037798D02*
X0047705Y0037798D01*
X0047705Y0038796D02*
X0046472Y0038796D01*
X0047705Y0034802D02*
X0043007Y0034802D01*
X0044972Y0031855D02*
X0045004Y0031855D01*
X0049041Y0031807D02*
X0056562Y0031807D01*
X0055564Y0032805D02*
X0049031Y0032805D01*
X0049041Y0030808D02*
X0061409Y0030808D01*
X0059603Y0028811D02*
X0069983Y0028811D01*
X0069930Y0028616D02*
X0069823Y0027796D01*
X0076065Y0027796D01*
X0076065Y0026796D01*
X0077065Y0026796D01*
X0077065Y0020554D01*
X0077885Y0020662D01*
X0078739Y0020891D01*
X0079557Y0021229D01*
X0080323Y0021672D01*
X0081025Y0022210D01*
X0081651Y0022836D01*
X0082189Y0023538D01*
X0082632Y0024304D01*
X0082970Y0025122D01*
X0083199Y0025976D01*
X0083307Y0026796D01*
X0077065Y0026796D01*
X0077065Y0027796D01*
X0083307Y0027796D01*
X0083199Y0028616D01*
X0082970Y0029471D01*
X0082632Y0030288D01*
X0082189Y0031054D01*
X0081651Y0031756D01*
X0081025Y0032382D01*
X0080323Y0032921D01*
X0079557Y0033363D01*
X0078739Y0033702D01*
X0077885Y0033931D01*
X0077065Y0034039D01*
X0077065Y0027796D01*
X0076065Y0027796D01*
X0076065Y0034039D01*
X0075245Y0033931D01*
X0074391Y0033702D01*
X0073573Y0033363D01*
X0072807Y0032921D01*
X0072105Y0032382D01*
X0071479Y0031756D01*
X0070941Y0031054D01*
X0070498Y0030288D01*
X0070159Y0029471D01*
X0069930Y0028616D01*
X0069825Y0027813D02*
X0060804Y0027813D01*
X0060804Y0026814D02*
X0076065Y0026814D01*
X0076065Y0026796D02*
X0069823Y0026796D01*
X0069930Y0025976D01*
X0070159Y0025122D01*
X0070498Y0024304D01*
X0070941Y0023538D01*
X0071479Y0022836D01*
X0072105Y0022210D01*
X0072807Y0021672D01*
X0073573Y0021229D01*
X0074391Y0020891D01*
X0075245Y0020662D01*
X0076065Y0020554D01*
X0076065Y0026796D01*
X0076065Y0025816D02*
X0077065Y0025816D01*
X0077065Y0026814D02*
X0096143Y0026814D01*
X0096143Y0026796D02*
X0089900Y0026796D01*
X0090008Y0025976D01*
X0090237Y0025122D01*
X0090576Y0024304D01*
X0091018Y0023538D01*
X0091557Y0022836D01*
X0092183Y0022210D01*
X0092885Y0021672D01*
X0093651Y0021229D01*
X0094469Y0020891D01*
X0095323Y0020662D01*
X0096143Y0020554D01*
X0096143Y0026796D01*
X0096143Y0025816D02*
X0097143Y0025816D01*
X0097143Y0024817D02*
X0096143Y0024817D01*
X0096143Y0023819D02*
X0097143Y0023819D01*
X0097143Y0022820D02*
X0096143Y0022820D01*
X0096143Y0021822D02*
X0097143Y0021822D01*
X0097143Y0020823D02*
X0096143Y0020823D01*
X0094720Y0020823D02*
X0078488Y0020823D01*
X0077065Y0020823D02*
X0076065Y0020823D01*
X0076065Y0021822D02*
X0077065Y0021822D01*
X0077065Y0022820D02*
X0076065Y0022820D01*
X0076065Y0023819D02*
X0077065Y0023819D01*
X0077065Y0024817D02*
X0076065Y0024817D01*
X0071495Y0022820D02*
X0064704Y0022820D01*
X0064642Y0023819D02*
X0070778Y0023819D01*
X0070286Y0024817D02*
X0060804Y0024817D01*
X0060804Y0025816D02*
X0069973Y0025816D01*
X0076065Y0027813D02*
X0077065Y0027813D01*
X0077065Y0028811D02*
X0076065Y0028811D01*
X0076065Y0029810D02*
X0077065Y0029810D01*
X0077065Y0030808D02*
X0076065Y0030808D01*
X0076065Y0031807D02*
X0077065Y0031807D01*
X0077065Y0032805D02*
X0076065Y0032805D01*
X0076065Y0033804D02*
X0077065Y0033804D01*
X0078358Y0033804D02*
X0082711Y0033804D01*
X0081970Y0034802D02*
X0069285Y0034802D01*
X0069304Y0033804D02*
X0074772Y0033804D01*
X0072657Y0032805D02*
X0069304Y0032805D01*
X0066904Y0032805D02*
X0066904Y0032805D01*
X0066904Y0033335D02*
X0066904Y0034835D01*
X0066904Y0037535D01*
X0066904Y0033335D01*
X0066904Y0033335D01*
X0066904Y0033804D02*
X0066904Y0033804D01*
X0066904Y0034802D02*
X0066904Y0034802D01*
X0066904Y0035801D02*
X0066904Y0035801D01*
X0066904Y0036799D02*
X0066904Y0036799D01*
X0066904Y0037535D02*
X0066904Y0037535D01*
X0069214Y0035801D02*
X0069265Y0035801D01*
X0070504Y0035801D02*
X0070504Y0035801D01*
X0070504Y0035602D02*
X0070504Y0037075D01*
X0070504Y0037075D01*
X0070504Y0035602D01*
X0071743Y0035801D02*
X0081557Y0035801D01*
X0081354Y0036799D02*
X0072468Y0036799D01*
X0070504Y0036799D02*
X0070504Y0036799D01*
X0070504Y0041235D02*
X0070404Y0041335D01*
X0070204Y0041335D01*
X0068636Y0043789D02*
X0068371Y0043789D01*
X0080378Y0041792D02*
X0083645Y0041792D01*
X0081527Y0042790D02*
X0091681Y0042790D01*
X0091557Y0042914D02*
X0092183Y0042288D01*
X0092885Y0041750D01*
X0093651Y0041307D01*
X0094469Y0040969D01*
X0095323Y0040740D01*
X0096143Y0040632D01*
X0096143Y0046874D01*
X0089900Y0046874D01*
X0090008Y0046054D01*
X0090237Y0045200D01*
X0090576Y0044382D01*
X0091018Y0043616D01*
X0091557Y0042914D01*
X0090919Y0043789D02*
X0082289Y0043789D01*
X0082800Y0044787D02*
X0090408Y0044787D01*
X0090080Y0045786D02*
X0083128Y0045786D01*
X0083296Y0046785D02*
X0089912Y0046785D01*
X0090032Y0048782D02*
X0083176Y0048782D01*
X0082875Y0049780D02*
X0090333Y0049780D01*
X0090814Y0050779D02*
X0082394Y0050779D01*
X0081695Y0051777D02*
X0091513Y0051777D01*
X0092594Y0052776D02*
X0080614Y0052776D01*
X0096143Y0046785D02*
X0097143Y0046785D01*
X0097143Y0045786D02*
X0096143Y0045786D01*
X0096143Y0044787D02*
X0097143Y0044787D01*
X0097143Y0043789D02*
X0096143Y0043789D01*
X0096143Y0042790D02*
X0097143Y0042790D01*
X0097143Y0041792D02*
X0096143Y0041792D01*
X0096143Y0040793D02*
X0097143Y0040793D01*
X0098164Y0040793D02*
X0101705Y0040793D01*
X0101705Y0041792D02*
X0100456Y0041792D01*
X0101605Y0042790D02*
X0101705Y0042790D01*
X0101705Y0039795D02*
X0091268Y0039795D01*
X0091681Y0038796D02*
X0101705Y0038796D01*
X0101705Y0037798D02*
X0091854Y0037798D01*
X0091854Y0036799D02*
X0101705Y0036799D01*
X0101705Y0035801D02*
X0091651Y0035801D01*
X0091237Y0034802D02*
X0101705Y0034802D01*
X0101705Y0033804D02*
X0098436Y0033804D01*
X0097143Y0033804D02*
X0096143Y0033804D01*
X0096143Y0034039D02*
X0095323Y0033931D01*
X0094469Y0033702D01*
X0093651Y0033363D01*
X0092885Y0032921D01*
X0092183Y0032382D01*
X0091557Y0031756D01*
X0091018Y0031054D01*
X0090576Y0030288D01*
X0090237Y0029471D01*
X0090008Y0028616D01*
X0089900Y0027796D01*
X0096143Y0027796D01*
X0096143Y0034039D01*
X0096143Y0032805D02*
X0097143Y0032805D01*
X0097143Y0031807D02*
X0096143Y0031807D01*
X0096143Y0030808D02*
X0097143Y0030808D01*
X0097143Y0029810D02*
X0096143Y0029810D01*
X0096143Y0028811D02*
X0097143Y0028811D01*
X0097143Y0027813D02*
X0096143Y0027813D01*
X0090876Y0030808D02*
X0082331Y0030808D01*
X0081600Y0031807D02*
X0091608Y0031807D01*
X0092735Y0032805D02*
X0089387Y0032805D01*
X0090497Y0033804D02*
X0094850Y0033804D01*
X0100551Y0032805D02*
X0101705Y0032805D01*
X0101678Y0031807D02*
X0101705Y0031807D01*
X0090378Y0029810D02*
X0082830Y0029810D01*
X0083147Y0028811D02*
X0090061Y0028811D01*
X0089903Y0027813D02*
X0083305Y0027813D01*
X0083156Y0025816D02*
X0090051Y0025816D01*
X0090364Y0024817D02*
X0082844Y0024817D01*
X0082352Y0023819D02*
X0090856Y0023819D01*
X0091573Y0022820D02*
X0081635Y0022820D01*
X0080519Y0021822D02*
X0092689Y0021822D01*
X0098566Y0020823D02*
X0101705Y0020823D01*
X0101705Y0021822D02*
X0100597Y0021822D01*
X0101705Y0019825D02*
X0064626Y0019825D01*
X0064704Y0018826D02*
X0101705Y0018826D01*
X0101705Y0017828D02*
X0064704Y0017828D01*
X0064528Y0016829D02*
X0101705Y0016829D01*
X0101705Y0015831D02*
X0027731Y0015831D01*
X0028730Y0016829D02*
X0032079Y0016829D01*
X0031904Y0017828D02*
X0029728Y0017828D01*
X0030700Y0018826D02*
X0031904Y0018826D01*
X0031904Y0018435D02*
X0034604Y0018435D01*
X0034604Y0016035D01*
X0034604Y0018435D01*
X0034604Y0018435D01*
X0031904Y0018435D01*
X0031982Y0019825D02*
X0030700Y0019825D01*
X0030700Y0020823D02*
X0031904Y0020823D01*
X0031904Y0021822D02*
X0030700Y0021822D01*
X0030700Y0022820D02*
X0031904Y0022820D01*
X0031966Y0023819D02*
X0030934Y0023819D01*
X0031122Y0024011D02*
X0031122Y0024011D01*
X0031929Y0024817D02*
X0035704Y0024817D01*
X0035704Y0025816D02*
X0032927Y0025816D01*
X0032950Y0025838D02*
X0032950Y0025838D01*
X0033926Y0026814D02*
X0035704Y0026814D01*
X0035704Y0027813D02*
X0034029Y0027813D01*
X0034004Y0028811D02*
X0036804Y0028811D01*
X0037121Y0029810D02*
X0034004Y0029810D01*
X0043004Y0025835D02*
X0043004Y0024619D01*
X0040920Y0022735D01*
X0040720Y0022235D01*
X0034604Y0018435D02*
X0034604Y0018435D01*
X0034604Y0017828D02*
X0034604Y0017828D01*
X0034604Y0016829D02*
X0034604Y0016829D01*
X0023269Y0015831D02*
X0017731Y0015831D01*
X0018730Y0016829D02*
X0022270Y0016829D01*
X0021272Y0017828D02*
X0019728Y0017828D01*
X0049499Y0029810D02*
X0070300Y0029810D01*
X0070798Y0030808D02*
X0068506Y0030808D01*
X0069269Y0031807D02*
X0071530Y0031807D01*
X0066904Y0031807D02*
X0066904Y0031807D01*
X0066904Y0030808D02*
X0066904Y0030808D01*
X0065302Y0030808D02*
X0064798Y0030808D01*
X0055487Y0022735D02*
X0053004Y0024619D01*
X0053004Y0026335D01*
X0051371Y0028811D02*
X0050498Y0028811D01*
X0064704Y0021822D02*
X0072611Y0021822D01*
X0074642Y0020823D02*
X0064704Y0020823D01*
X0062004Y0017828D02*
X0062004Y0017828D01*
X0062004Y0016829D02*
X0062004Y0016829D01*
X0080473Y0032805D02*
X0083821Y0032805D01*
X0090570Y0040793D02*
X0095122Y0040793D01*
X0092830Y0041792D02*
X0089563Y0041792D01*
D27*
X0089504Y0043335D03*
X0083504Y0043335D03*
X0086504Y0047335D03*
X0090504Y0054335D03*
X0082004Y0054335D03*
X0068504Y0054335D03*
X0061504Y0054335D03*
X0054504Y0054335D03*
X0054504Y0049835D03*
X0054504Y0045335D03*
X0061504Y0045335D03*
X0068504Y0045335D03*
X0068504Y0049835D03*
X0061504Y0049835D03*
X0046704Y0035635D03*
X0053504Y0031335D03*
X0062504Y0028835D03*
X0067504Y0028835D03*
X0071004Y0033835D03*
X0079004Y0035335D03*
X0083504Y0031335D03*
X0086504Y0027335D03*
X0090004Y0031835D03*
X0093504Y0037835D03*
X0100004Y0037835D03*
X0100504Y0054335D03*
X0067504Y0022335D03*
X0067504Y0016335D03*
X0076504Y0016335D03*
X0084504Y0016335D03*
X0092004Y0016335D03*
X0100004Y0016335D03*
X0086504Y0021335D03*
X0035004Y0028835D03*
X0030504Y0016335D03*
X0020504Y0016335D03*
X0011004Y0016335D03*
X0011004Y0025835D03*
X0011004Y0035835D03*
X0011004Y0045835D03*
X0010504Y0054835D03*
X0032004Y0050835D03*
X0033504Y0047335D03*
D28*
X0026122Y0050953D02*
X0025500Y0050953D01*
X0026122Y0050953D02*
X0029004Y0054335D01*
X0043004Y0054335D01*
M02*
