G75*
%MOIN*%
%OFA0B0*%
%FSLAX25Y25*%
%IPPOS*%
%LPD*%
%AMOC8*
5,1,8,0,0,1.08239X$1,22.5*
%
%ADD10C,0.00100*%
%ADD11C,0.00600*%
%ADD12C,0.00800*%
%ADD13C,0.00500*%
D10*
X0008737Y0019105D02*
X0009471Y0019105D01*
X0009655Y0019288D01*
X0009655Y0019655D01*
X0009471Y0019839D01*
X0008737Y0019839D01*
X0008554Y0019655D01*
X0008554Y0019288D01*
X0008737Y0019105D01*
X0008737Y0020210D02*
X0008554Y0020393D01*
X0008554Y0020760D01*
X0008737Y0020944D01*
X0009104Y0020760D02*
X0009104Y0020393D01*
X0008921Y0020210D01*
X0008737Y0020210D01*
X0009104Y0020760D02*
X0009288Y0020944D01*
X0009471Y0020944D01*
X0009655Y0020760D01*
X0009655Y0020393D01*
X0009471Y0020210D01*
X0009655Y0021313D02*
X0009655Y0021680D01*
X0009655Y0021497D02*
X0008554Y0021497D01*
X0008554Y0021680D02*
X0008554Y0021313D01*
X0008554Y0022051D02*
X0009655Y0022051D01*
X0009288Y0022418D01*
X0009655Y0022785D01*
X0008554Y0022785D01*
X0008554Y0029841D02*
X0009104Y0030392D01*
X0008921Y0030575D02*
X0009655Y0029841D01*
X0009655Y0030575D02*
X0008554Y0030575D01*
X0008737Y0030946D02*
X0008554Y0031130D01*
X0008554Y0031497D01*
X0008737Y0031680D01*
X0009471Y0031680D01*
X0009655Y0031497D01*
X0009655Y0031130D01*
X0009471Y0030946D01*
X0009471Y0032051D02*
X0009655Y0032235D01*
X0009655Y0032602D01*
X0009471Y0032785D01*
X0009288Y0032785D01*
X0009104Y0032602D01*
X0009104Y0032235D01*
X0008921Y0032051D01*
X0008737Y0032051D01*
X0008554Y0032235D01*
X0008554Y0032602D01*
X0008737Y0032785D01*
X0008554Y0040446D02*
X0008554Y0041180D01*
X0009655Y0041180D01*
X0009655Y0040446D01*
X0009104Y0040813D02*
X0009104Y0041180D01*
X0008737Y0041551D02*
X0008554Y0041735D01*
X0008554Y0042102D01*
X0008737Y0042285D01*
X0009471Y0042285D01*
X0009655Y0042102D01*
X0009655Y0041735D01*
X0009471Y0041551D01*
X0009471Y0049341D02*
X0008737Y0049341D01*
X0008554Y0049525D01*
X0008554Y0050075D01*
X0009655Y0050075D01*
X0009655Y0049525D01*
X0009471Y0049341D01*
X0009655Y0050446D02*
X0008554Y0050446D01*
X0009655Y0051180D01*
X0008554Y0051180D01*
X0008737Y0051551D02*
X0009104Y0051551D01*
X0009104Y0051918D01*
X0008737Y0051551D02*
X0008554Y0051735D01*
X0008554Y0052102D01*
X0008737Y0052285D01*
X0009471Y0052285D01*
X0009655Y0052102D01*
X0009655Y0051735D01*
X0009471Y0051551D01*
X0031554Y0053356D02*
X0031921Y0052989D01*
X0032655Y0052989D01*
X0032655Y0053723D02*
X0031921Y0053723D01*
X0031554Y0053356D01*
X0031737Y0054094D02*
X0031554Y0054277D01*
X0031554Y0054644D01*
X0031737Y0054828D01*
X0031737Y0055197D02*
X0031554Y0055197D01*
X0031554Y0055380D01*
X0031737Y0055380D01*
X0031737Y0055197D01*
X0031737Y0055751D02*
X0031554Y0055935D01*
X0031554Y0056302D01*
X0031737Y0056485D01*
X0032104Y0056118D02*
X0032104Y0055935D01*
X0031921Y0055751D01*
X0031737Y0055751D01*
X0032104Y0055935D02*
X0032288Y0055751D01*
X0032471Y0055751D01*
X0032655Y0055935D01*
X0032655Y0056302D01*
X0032471Y0056485D01*
X0032471Y0054828D02*
X0032655Y0054644D01*
X0032655Y0054277D01*
X0032471Y0054094D01*
X0032288Y0054094D01*
X0032104Y0054277D01*
X0031921Y0054094D01*
X0031737Y0054094D01*
X0032104Y0054277D02*
X0032104Y0054461D01*
X0031737Y0042785D02*
X0031554Y0042602D01*
X0031554Y0042235D01*
X0031737Y0042051D01*
X0031737Y0041680D02*
X0031554Y0041497D01*
X0031554Y0041130D01*
X0031737Y0040946D01*
X0031921Y0040946D01*
X0032104Y0041130D01*
X0032104Y0041497D01*
X0032288Y0041680D01*
X0032471Y0041680D01*
X0032655Y0041497D01*
X0032655Y0041130D01*
X0032471Y0040946D01*
X0032655Y0040575D02*
X0031554Y0040575D01*
X0031554Y0039841D02*
X0032655Y0039841D01*
X0032655Y0040575D02*
X0031554Y0039841D01*
X0032471Y0042051D02*
X0032655Y0042235D01*
X0032655Y0042602D01*
X0032471Y0042785D01*
X0031737Y0042785D01*
X0031554Y0033285D02*
X0032655Y0033285D01*
X0032288Y0032918D01*
X0032655Y0032551D01*
X0031554Y0032551D01*
X0031737Y0032180D02*
X0031554Y0031997D01*
X0031554Y0031630D01*
X0031737Y0031446D01*
X0032471Y0031446D01*
X0032655Y0031630D01*
X0032655Y0031997D01*
X0032471Y0032180D01*
X0031737Y0032180D01*
X0031737Y0031075D02*
X0031554Y0030892D01*
X0031554Y0030525D01*
X0031737Y0030341D01*
X0031921Y0030341D01*
X0032104Y0030525D01*
X0032104Y0030892D01*
X0032288Y0031075D01*
X0032471Y0031075D01*
X0032655Y0030892D01*
X0032655Y0030525D01*
X0032471Y0030341D01*
X0032655Y0029970D02*
X0032655Y0029603D01*
X0032655Y0029787D02*
X0031554Y0029787D01*
X0031554Y0029970D02*
X0031554Y0029603D01*
X0031554Y0022285D02*
X0031554Y0021918D01*
X0031554Y0022102D02*
X0032655Y0022102D01*
X0032655Y0022285D02*
X0032655Y0021918D01*
X0032655Y0021549D02*
X0032655Y0020998D01*
X0032471Y0020815D01*
X0032104Y0020815D01*
X0031921Y0020998D01*
X0031921Y0021549D01*
X0031554Y0021549D02*
X0032655Y0021549D01*
X0032854Y0022335D02*
X0032854Y0019389D01*
X0032471Y0019710D02*
X0031737Y0019710D01*
X0031554Y0019893D01*
X0031554Y0020260D01*
X0031737Y0020444D01*
X0032471Y0020444D01*
X0032655Y0020260D01*
X0032655Y0019893D01*
X0032471Y0019710D01*
X0031921Y0020077D02*
X0031554Y0019710D01*
X0031554Y0020815D02*
X0031921Y0021182D01*
X0069554Y0020786D02*
X0070154Y0019885D01*
X0070154Y0020786D01*
X0070475Y0020786D02*
X0070925Y0020786D01*
X0071075Y0020636D01*
X0071075Y0020336D01*
X0070925Y0020185D01*
X0070475Y0020185D01*
X0070475Y0019885D02*
X0070475Y0020786D01*
X0070775Y0020185D02*
X0071075Y0019885D01*
X0071395Y0019885D02*
X0071395Y0020786D01*
X0071996Y0020786D01*
X0071696Y0020336D02*
X0071395Y0020336D01*
X0071395Y0019286D02*
X0071395Y0018685D01*
X0071696Y0018385D01*
X0071996Y0018685D01*
X0071996Y0019286D01*
X0072316Y0018986D02*
X0072466Y0018986D01*
X0072466Y0018385D01*
X0072316Y0018385D02*
X0072617Y0018385D01*
X0072930Y0018385D02*
X0072930Y0018986D01*
X0073381Y0018986D01*
X0073531Y0018836D01*
X0073531Y0018385D01*
X0073851Y0018535D02*
X0074001Y0018385D01*
X0074451Y0018385D01*
X0074772Y0018385D02*
X0075072Y0018385D01*
X0074922Y0018385D02*
X0074922Y0018986D01*
X0074772Y0018986D01*
X0074451Y0018986D02*
X0074001Y0018986D01*
X0073851Y0018836D01*
X0073851Y0018535D01*
X0074922Y0019286D02*
X0074922Y0019436D01*
X0074758Y0019885D02*
X0074158Y0019885D01*
X0074458Y0019885D02*
X0074458Y0020786D01*
X0074158Y0020486D01*
X0073838Y0020486D02*
X0073537Y0019885D01*
X0073237Y0020486D01*
X0072466Y0019436D02*
X0072466Y0019286D01*
X0071075Y0018836D02*
X0071075Y0018385D01*
X0070625Y0018385D01*
X0070475Y0018535D01*
X0070625Y0018685D01*
X0071075Y0018685D01*
X0071075Y0018836D02*
X0070925Y0018986D01*
X0070625Y0018986D01*
X0070154Y0019136D02*
X0070004Y0019286D01*
X0069554Y0019286D01*
X0069554Y0018385D01*
X0070004Y0018385D01*
X0070154Y0018535D01*
X0070154Y0019136D01*
X0069554Y0019885D02*
X0069554Y0020786D01*
X0075999Y0020336D02*
X0076600Y0020336D01*
X0076456Y0019286D02*
X0076306Y0019136D01*
X0076306Y0018986D01*
X0076456Y0018836D01*
X0076757Y0018836D01*
X0076907Y0018685D01*
X0076907Y0018535D01*
X0076757Y0018385D01*
X0076456Y0018385D01*
X0076306Y0018535D01*
X0076456Y0019286D02*
X0076757Y0019286D01*
X0076907Y0019136D01*
X0077227Y0018535D02*
X0077377Y0018535D01*
X0077377Y0018385D01*
X0077227Y0018385D01*
X0077227Y0018535D01*
X0077687Y0018385D02*
X0078288Y0018385D01*
X0078608Y0018385D02*
X0078758Y0018385D01*
X0078758Y0018535D01*
X0078608Y0018535D01*
X0078608Y0018385D01*
X0077988Y0018836D02*
X0077687Y0018836D01*
X0077687Y0019286D02*
X0077687Y0018385D01*
X0077687Y0019286D02*
X0078288Y0019286D01*
X0078291Y0019885D02*
X0077991Y0019885D01*
X0077841Y0020035D01*
X0078441Y0020636D01*
X0078441Y0020035D01*
X0078291Y0019885D01*
X0077841Y0020035D02*
X0077841Y0020636D01*
X0077991Y0020786D01*
X0078291Y0020786D01*
X0078441Y0020636D01*
X0078762Y0020786D02*
X0078762Y0020336D01*
X0079062Y0020486D01*
X0079212Y0020486D01*
X0079362Y0020336D01*
X0079362Y0020035D01*
X0079212Y0019885D01*
X0078912Y0019885D01*
X0078762Y0020035D01*
X0078762Y0020786D02*
X0079362Y0020786D01*
X0080283Y0020786D02*
X0079683Y0019885D01*
X0080603Y0019885D02*
X0081204Y0020486D01*
X0081204Y0020636D01*
X0081054Y0020786D01*
X0080753Y0020786D01*
X0080603Y0020636D01*
X0080603Y0019885D02*
X0081204Y0019885D01*
X0081524Y0020035D02*
X0082125Y0020636D01*
X0082125Y0020035D01*
X0081974Y0019885D01*
X0081674Y0019885D01*
X0081524Y0020035D01*
X0081524Y0020636D01*
X0081674Y0020786D01*
X0081974Y0020786D01*
X0082125Y0020636D01*
X0082445Y0020486D02*
X0082745Y0020786D01*
X0082745Y0019885D01*
X0082445Y0019885D02*
X0083045Y0019885D01*
X0083366Y0019885D02*
X0083366Y0020035D01*
X0083966Y0020636D01*
X0083966Y0020786D01*
X0083366Y0020786D01*
D11*
X0028000Y0015953D02*
X0013000Y0015953D01*
X0010500Y0018453D01*
X0010500Y0023453D01*
X0013000Y0025953D01*
X0010500Y0028453D01*
X0010500Y0033453D01*
X0013000Y0035953D01*
X0010500Y0038453D01*
X0010500Y0043453D01*
X0013000Y0045953D01*
X0010500Y0048453D01*
X0010500Y0053453D01*
X0013000Y0055953D01*
X0028000Y0055953D01*
X0030500Y0053453D01*
X0030500Y0048453D01*
X0028000Y0045953D01*
X0030500Y0043453D01*
X0030500Y0038453D01*
X0028000Y0035953D01*
X0030500Y0033453D01*
X0030500Y0028453D01*
X0028000Y0025953D01*
X0030500Y0023453D01*
X0030500Y0018453D01*
X0028000Y0015953D01*
X0035004Y0031335D02*
X0035004Y0033835D01*
X0035004Y0031335D02*
X0037504Y0031335D01*
X0048504Y0031335D02*
X0051004Y0031335D01*
X0051004Y0033835D01*
X0035004Y0044835D02*
X0035004Y0047335D01*
X0037504Y0047335D01*
X0048504Y0047335D02*
X0051004Y0047335D01*
X0051004Y0045335D01*
D12*
X0037098Y0047209D02*
X0035130Y0045241D01*
D13*
X0037968Y0029034D02*
X0058440Y0029034D01*
X0058440Y0016436D02*
X0037968Y0016436D01*
M02*
