G75*
%MOIN*%
%OFA0B0*%
%FSLAX25Y25*%
%IPPOS*%
%LPD*%
%AMOC8*
5,1,8,0,0,1.08239X$1,22.5*
%
%ADD10C,0.08000*%
%ADD11C,0.11000*%
%ADD12OC8,0.07900*%
%ADD13C,0.03400*%
D10*
X0086604Y0037335D03*
D11*
X0096643Y0027296D03*
X0076565Y0027296D03*
X0076565Y0047374D03*
X0096643Y0047374D03*
D12*
X0025500Y0050953D03*
X0015500Y0050953D03*
X0015500Y0040953D03*
X0025500Y0040953D03*
X0025500Y0030953D03*
X0015500Y0030953D03*
X0015500Y0020953D03*
X0025500Y0020953D03*
D13*
X0011004Y0016335D03*
X0020504Y0016335D03*
X0030504Y0016335D03*
X0011004Y0025835D03*
X0011004Y0035835D03*
X0011004Y0045835D03*
X0010504Y0054835D03*
X0032004Y0050835D03*
X0033504Y0047335D03*
X0054504Y0045335D03*
X0054504Y0049835D03*
X0061504Y0049835D03*
X0068504Y0049835D03*
X0068504Y0045335D03*
X0061504Y0045335D03*
X0061504Y0054335D03*
X0068504Y0054335D03*
X0082004Y0054335D03*
X0090504Y0054335D03*
X0100504Y0054335D03*
X0086504Y0047335D03*
X0089504Y0043335D03*
X0083504Y0043335D03*
X0093504Y0037835D03*
X0100004Y0037835D03*
X0090004Y0031835D03*
X0083504Y0031335D03*
X0086504Y0027335D03*
X0086504Y0021335D03*
X0084504Y0016335D03*
X0092004Y0016335D03*
X0100004Y0016335D03*
X0076504Y0016335D03*
X0067504Y0016335D03*
X0067504Y0022335D03*
X0067504Y0028835D03*
X0062504Y0028835D03*
X0053504Y0031335D03*
X0046704Y0035635D03*
X0035004Y0028835D03*
X0071004Y0033835D03*
X0079004Y0035335D03*
X0054504Y0054335D03*
M02*
