G75*
%MOIN*%
%OFA0B0*%
%FSLAX25Y25*%
%IPPOS*%
%LPD*%
%AMOC8*
5,1,8,0,0,1.08239X$1,22.5*
%
%ADD10C,0.07500*%
%ADD11C,0.10500*%
%ADD12OC8,0.07400*%
%ADD13C,0.01000*%
%ADD14C,0.02900*%
D10*
X0086604Y0037335D03*
D11*
X0096643Y0027296D03*
X0076565Y0027296D03*
X0076565Y0047374D03*
X0096643Y0047374D03*
D12*
X0025500Y0050953D03*
X0015500Y0050953D03*
X0015500Y0040953D03*
X0025500Y0040953D03*
X0025500Y0030953D03*
X0015500Y0030953D03*
X0015500Y0020953D03*
X0025500Y0020953D03*
D13*
X0009504Y0014835D02*
X0009504Y0055796D01*
X0012989Y0055796D01*
X0010300Y0053107D01*
X0010300Y0051453D01*
X0015000Y0051453D01*
X0015000Y0050453D01*
X0010300Y0050453D01*
X0010300Y0048799D01*
X0013005Y0046095D01*
X0010100Y0043190D01*
X0010100Y0038716D01*
X0012863Y0035953D01*
X0010100Y0033190D01*
X0010100Y0028716D01*
X0012863Y0025953D01*
X0010100Y0023190D01*
X0010100Y0018716D01*
X0013263Y0015553D01*
X0017737Y0015553D01*
X0020500Y0018317D01*
X0023263Y0015553D01*
X0027737Y0015553D01*
X0030900Y0018716D01*
X0030900Y0023190D01*
X0028137Y0025953D01*
X0030900Y0028716D01*
X0030900Y0033190D01*
X0028137Y0035953D01*
X0030900Y0038716D01*
X0030900Y0043190D01*
X0028137Y0045953D01*
X0030900Y0048716D01*
X0030900Y0053190D01*
X0028294Y0055796D01*
X0101705Y0055796D01*
X0101705Y0051858D01*
X0101103Y0052460D01*
X0100401Y0052999D01*
X0099635Y0053441D01*
X0098817Y0053780D01*
X0097963Y0054009D01*
X0097143Y0054117D01*
X0097143Y0047874D01*
X0096143Y0047874D01*
X0096143Y0046874D01*
X0097143Y0046874D01*
X0097143Y0040632D01*
X0097963Y0040740D01*
X0098817Y0040969D01*
X0099635Y0041307D01*
X0100401Y0041750D01*
X0101103Y0042288D01*
X0101705Y0042890D01*
X0101705Y0031780D01*
X0101103Y0032382D01*
X0100401Y0032921D01*
X0099635Y0033363D01*
X0098817Y0033702D01*
X0097963Y0033931D01*
X0097143Y0034039D01*
X0097143Y0027796D01*
X0096143Y0027796D01*
X0096143Y0026796D01*
X0097143Y0026796D01*
X0097143Y0020554D01*
X0097963Y0020662D01*
X0098817Y0020891D01*
X0099635Y0021229D01*
X0100401Y0021672D01*
X0101103Y0022210D01*
X0101705Y0022812D01*
X0101705Y0014835D01*
X0009504Y0014835D01*
X0009504Y0015831D02*
X0012986Y0015831D01*
X0011987Y0016829D02*
X0009504Y0016829D01*
X0009504Y0017828D02*
X0010989Y0017828D01*
X0010100Y0018826D02*
X0009504Y0018826D01*
X0009504Y0019825D02*
X0010100Y0019825D01*
X0010100Y0020823D02*
X0009504Y0020823D01*
X0009504Y0021822D02*
X0010100Y0021822D01*
X0010100Y0022820D02*
X0009504Y0022820D01*
X0009504Y0023819D02*
X0010729Y0023819D01*
X0011727Y0024817D02*
X0009504Y0024817D01*
X0009504Y0025816D02*
X0012726Y0025816D01*
X0012002Y0026814D02*
X0009504Y0026814D01*
X0009504Y0027813D02*
X0011004Y0027813D01*
X0010100Y0028811D02*
X0009504Y0028811D01*
X0009504Y0029810D02*
X0010100Y0029810D01*
X0010100Y0030808D02*
X0009504Y0030808D01*
X0009504Y0031807D02*
X0010100Y0031807D01*
X0010100Y0032805D02*
X0009504Y0032805D01*
X0009504Y0033804D02*
X0010714Y0033804D01*
X0011712Y0034802D02*
X0009504Y0034802D01*
X0009504Y0035801D02*
X0012711Y0035801D01*
X0012017Y0036799D02*
X0009504Y0036799D01*
X0009504Y0037798D02*
X0011019Y0037798D01*
X0010100Y0038796D02*
X0009504Y0038796D01*
X0009504Y0039795D02*
X0010100Y0039795D01*
X0010100Y0040793D02*
X0009504Y0040793D01*
X0009504Y0041792D02*
X0010100Y0041792D01*
X0010100Y0042790D02*
X0009504Y0042790D01*
X0009504Y0043789D02*
X0010699Y0043789D01*
X0011698Y0044787D02*
X0009504Y0044787D01*
X0009504Y0045786D02*
X0012696Y0045786D01*
X0012315Y0046785D02*
X0009504Y0046785D01*
X0009504Y0047783D02*
X0011316Y0047783D01*
X0010318Y0048782D02*
X0009504Y0048782D01*
X0009504Y0049780D02*
X0010300Y0049780D01*
X0009504Y0050779D02*
X0015000Y0050779D01*
X0010300Y0051777D02*
X0009504Y0051777D01*
X0009504Y0052776D02*
X0010300Y0052776D01*
X0010967Y0053774D02*
X0009504Y0053774D01*
X0009504Y0054773D02*
X0011965Y0054773D01*
X0012964Y0055771D02*
X0009504Y0055771D01*
X0028319Y0055771D02*
X0101705Y0055771D01*
X0101705Y0054773D02*
X0029317Y0054773D01*
X0030316Y0053774D02*
X0074377Y0053774D01*
X0074391Y0053780D02*
X0073573Y0053441D01*
X0072807Y0052999D01*
X0072105Y0052460D01*
X0071479Y0051834D01*
X0070941Y0051132D01*
X0070498Y0050366D01*
X0070159Y0049548D01*
X0069930Y0048694D01*
X0069823Y0047874D01*
X0076065Y0047874D01*
X0076065Y0046874D01*
X0077065Y0046874D01*
X0077065Y0040632D01*
X0077885Y0040740D01*
X0078739Y0040969D01*
X0079557Y0041307D01*
X0080323Y0041750D01*
X0081025Y0042288D01*
X0081651Y0042914D01*
X0082189Y0043616D01*
X0082632Y0044382D01*
X0082970Y0045200D01*
X0083199Y0046054D01*
X0083307Y0046874D01*
X0077065Y0046874D01*
X0077065Y0047874D01*
X0083307Y0047874D01*
X0083199Y0048694D01*
X0082970Y0049548D01*
X0082632Y0050366D01*
X0082189Y0051132D01*
X0081651Y0051834D01*
X0081025Y0052460D01*
X0080323Y0052999D01*
X0079557Y0053441D01*
X0078739Y0053780D01*
X0077885Y0054009D01*
X0077065Y0054117D01*
X0077065Y0047874D01*
X0076065Y0047874D01*
X0076065Y0054117D01*
X0075245Y0054009D01*
X0074391Y0053780D01*
X0076065Y0053774D02*
X0077065Y0053774D01*
X0077065Y0052776D02*
X0076065Y0052776D01*
X0076065Y0051777D02*
X0077065Y0051777D01*
X0077065Y0050779D02*
X0076065Y0050779D01*
X0076065Y0049780D02*
X0077065Y0049780D01*
X0077065Y0048782D02*
X0076065Y0048782D01*
X0076065Y0047783D02*
X0029967Y0047783D01*
X0030900Y0048782D02*
X0069954Y0048782D01*
X0070255Y0049780D02*
X0030900Y0049780D01*
X0030900Y0050779D02*
X0070736Y0050779D01*
X0071435Y0051777D02*
X0030900Y0051777D01*
X0030900Y0052776D02*
X0072516Y0052776D01*
X0078753Y0053774D02*
X0094455Y0053774D01*
X0094469Y0053780D02*
X0093651Y0053441D01*
X0092885Y0052999D01*
X0092183Y0052460D01*
X0091557Y0051834D01*
X0091018Y0051132D01*
X0090576Y0050366D01*
X0090237Y0049548D01*
X0090008Y0048694D01*
X0089900Y0047874D01*
X0096143Y0047874D01*
X0096143Y0054117D01*
X0095323Y0054009D01*
X0094469Y0053780D01*
X0096143Y0053774D02*
X0097143Y0053774D01*
X0097143Y0052776D02*
X0096143Y0052776D01*
X0096143Y0051777D02*
X0097143Y0051777D01*
X0097143Y0050779D02*
X0096143Y0050779D01*
X0096143Y0049780D02*
X0097143Y0049780D01*
X0097143Y0048782D02*
X0096143Y0048782D01*
X0096143Y0047783D02*
X0077065Y0047783D01*
X0077065Y0046785D02*
X0076065Y0046785D01*
X0076065Y0046874D02*
X0076065Y0040632D01*
X0075245Y0040740D01*
X0074391Y0040969D01*
X0073573Y0041307D01*
X0072807Y0041750D01*
X0072105Y0042288D01*
X0071479Y0042914D01*
X0070941Y0043616D01*
X0070498Y0044382D01*
X0070159Y0045200D01*
X0069930Y0046054D01*
X0069823Y0046874D01*
X0076065Y0046874D01*
X0076065Y0045786D02*
X0077065Y0045786D01*
X0077065Y0044787D02*
X0076065Y0044787D01*
X0076065Y0043789D02*
X0077065Y0043789D01*
X0077065Y0042790D02*
X0076065Y0042790D01*
X0076065Y0041792D02*
X0077065Y0041792D01*
X0077065Y0040793D02*
X0076065Y0040793D01*
X0075044Y0040793D02*
X0030900Y0040793D01*
X0030900Y0041792D02*
X0072752Y0041792D01*
X0071603Y0042790D02*
X0030900Y0042790D01*
X0030301Y0043789D02*
X0070841Y0043789D01*
X0070330Y0044787D02*
X0029302Y0044787D01*
X0028304Y0045786D02*
X0070002Y0045786D01*
X0069834Y0046785D02*
X0028968Y0046785D01*
X0030900Y0039795D02*
X0081724Y0039795D01*
X0081984Y0040422D02*
X0081154Y0038419D01*
X0081154Y0036251D01*
X0081984Y0034248D01*
X0083517Y0032715D01*
X0085520Y0031885D01*
X0087688Y0031885D01*
X0089691Y0032715D01*
X0091224Y0034248D01*
X0092054Y0036251D01*
X0092054Y0038419D01*
X0091224Y0040422D01*
X0089691Y0041955D01*
X0087688Y0042785D01*
X0085520Y0042785D01*
X0083517Y0041955D01*
X0081984Y0040422D01*
X0082355Y0040793D02*
X0078086Y0040793D01*
X0080378Y0041792D02*
X0083353Y0041792D01*
X0081527Y0042790D02*
X0091681Y0042790D01*
X0091557Y0042914D02*
X0092183Y0042288D01*
X0092885Y0041750D01*
X0093651Y0041307D01*
X0094469Y0040969D01*
X0095323Y0040740D01*
X0096143Y0040632D01*
X0096143Y0046874D01*
X0089900Y0046874D01*
X0090008Y0046054D01*
X0090237Y0045200D01*
X0090576Y0044382D01*
X0091018Y0043616D01*
X0091557Y0042914D01*
X0090919Y0043789D02*
X0082289Y0043789D01*
X0082800Y0044787D02*
X0090408Y0044787D01*
X0090080Y0045786D02*
X0083128Y0045786D01*
X0083296Y0046785D02*
X0089912Y0046785D01*
X0090032Y0048782D02*
X0083176Y0048782D01*
X0082875Y0049780D02*
X0090333Y0049780D01*
X0090814Y0050779D02*
X0082394Y0050779D01*
X0081695Y0051777D02*
X0091513Y0051777D01*
X0092594Y0052776D02*
X0080614Y0052776D01*
X0096143Y0046785D02*
X0097143Y0046785D01*
X0097143Y0045786D02*
X0096143Y0045786D01*
X0096143Y0044787D02*
X0097143Y0044787D01*
X0097143Y0043789D02*
X0096143Y0043789D01*
X0096143Y0042790D02*
X0097143Y0042790D01*
X0097143Y0041792D02*
X0096143Y0041792D01*
X0096143Y0040793D02*
X0097143Y0040793D01*
X0098164Y0040793D02*
X0101705Y0040793D01*
X0101705Y0041792D02*
X0100456Y0041792D01*
X0101605Y0042790D02*
X0101705Y0042790D01*
X0101705Y0039795D02*
X0091484Y0039795D01*
X0091898Y0038796D02*
X0101705Y0038796D01*
X0101705Y0037798D02*
X0092054Y0037798D01*
X0092054Y0036799D02*
X0101705Y0036799D01*
X0101705Y0035801D02*
X0091867Y0035801D01*
X0091454Y0034802D02*
X0101705Y0034802D01*
X0101705Y0033804D02*
X0098436Y0033804D01*
X0097143Y0033804D02*
X0096143Y0033804D01*
X0096143Y0034039D02*
X0095323Y0033931D01*
X0094469Y0033702D01*
X0093651Y0033363D01*
X0092885Y0032921D01*
X0092183Y0032382D01*
X0091557Y0031756D01*
X0091018Y0031054D01*
X0090576Y0030288D01*
X0090237Y0029471D01*
X0090008Y0028616D01*
X0089900Y0027796D01*
X0096143Y0027796D01*
X0096143Y0034039D01*
X0096143Y0032805D02*
X0097143Y0032805D01*
X0097143Y0031807D02*
X0096143Y0031807D01*
X0096143Y0030808D02*
X0097143Y0030808D01*
X0097143Y0029810D02*
X0096143Y0029810D01*
X0096143Y0028811D02*
X0097143Y0028811D01*
X0097143Y0027813D02*
X0096143Y0027813D01*
X0096143Y0026814D02*
X0077065Y0026814D01*
X0077065Y0026796D02*
X0077065Y0027796D01*
X0083307Y0027796D01*
X0083199Y0028616D01*
X0082970Y0029471D01*
X0082632Y0030288D01*
X0082189Y0031054D01*
X0081651Y0031756D01*
X0081025Y0032382D01*
X0080323Y0032921D01*
X0079557Y0033363D01*
X0078739Y0033702D01*
X0077885Y0033931D01*
X0077065Y0034039D01*
X0077065Y0027796D01*
X0076065Y0027796D01*
X0076065Y0026796D01*
X0077065Y0026796D01*
X0077065Y0020554D01*
X0077885Y0020662D01*
X0078739Y0020891D01*
X0079557Y0021229D01*
X0080323Y0021672D01*
X0081025Y0022210D01*
X0081651Y0022836D01*
X0082189Y0023538D01*
X0082632Y0024304D01*
X0082970Y0025122D01*
X0083199Y0025976D01*
X0083307Y0026796D01*
X0077065Y0026796D01*
X0077065Y0025816D02*
X0076065Y0025816D01*
X0076065Y0026796D02*
X0076065Y0020554D01*
X0075245Y0020662D01*
X0074391Y0020891D01*
X0073573Y0021229D01*
X0072807Y0021672D01*
X0072105Y0022210D01*
X0071479Y0022836D01*
X0070941Y0023538D01*
X0070498Y0024304D01*
X0070159Y0025122D01*
X0069930Y0025976D01*
X0069823Y0026796D01*
X0076065Y0026796D01*
X0076065Y0026814D02*
X0028998Y0026814D01*
X0028274Y0025816D02*
X0069973Y0025816D01*
X0070286Y0024817D02*
X0029273Y0024817D01*
X0030271Y0023819D02*
X0070778Y0023819D01*
X0071495Y0022820D02*
X0030900Y0022820D01*
X0030900Y0021822D02*
X0072611Y0021822D01*
X0074642Y0020823D02*
X0030900Y0020823D01*
X0030900Y0019825D02*
X0101705Y0019825D01*
X0101705Y0018826D02*
X0030900Y0018826D01*
X0030011Y0017828D02*
X0101705Y0017828D01*
X0101705Y0016829D02*
X0029013Y0016829D01*
X0028014Y0015831D02*
X0101705Y0015831D01*
X0096143Y0020554D02*
X0096143Y0026796D01*
X0089900Y0026796D01*
X0090008Y0025976D01*
X0090237Y0025122D01*
X0090576Y0024304D01*
X0091018Y0023538D01*
X0091557Y0022836D01*
X0092183Y0022210D01*
X0092885Y0021672D01*
X0093651Y0021229D01*
X0094469Y0020891D01*
X0095323Y0020662D01*
X0096143Y0020554D01*
X0096143Y0020823D02*
X0097143Y0020823D01*
X0097143Y0021822D02*
X0096143Y0021822D01*
X0094720Y0020823D02*
X0078488Y0020823D01*
X0077065Y0020823D02*
X0076065Y0020823D01*
X0076065Y0021822D02*
X0077065Y0021822D01*
X0077065Y0022820D02*
X0076065Y0022820D01*
X0076065Y0023819D02*
X0077065Y0023819D01*
X0077065Y0024817D02*
X0076065Y0024817D01*
X0080519Y0021822D02*
X0092689Y0021822D01*
X0091573Y0022820D02*
X0081635Y0022820D01*
X0082352Y0023819D02*
X0090856Y0023819D01*
X0090364Y0024817D02*
X0082844Y0024817D01*
X0083156Y0025816D02*
X0090051Y0025816D01*
X0089903Y0027813D02*
X0083305Y0027813D01*
X0083147Y0028811D02*
X0090061Y0028811D01*
X0090378Y0029810D02*
X0082830Y0029810D01*
X0082331Y0030808D02*
X0090876Y0030808D01*
X0091608Y0031807D02*
X0081600Y0031807D01*
X0080473Y0032805D02*
X0083426Y0032805D01*
X0082428Y0033804D02*
X0078358Y0033804D01*
X0077065Y0033804D02*
X0076065Y0033804D01*
X0076065Y0034039D02*
X0075245Y0033931D01*
X0074391Y0033702D01*
X0073573Y0033363D01*
X0072807Y0032921D01*
X0072105Y0032382D01*
X0071479Y0031756D01*
X0070941Y0031054D01*
X0070498Y0030288D01*
X0070159Y0029471D01*
X0069930Y0028616D01*
X0069823Y0027796D01*
X0076065Y0027796D01*
X0076065Y0034039D01*
X0076065Y0032805D02*
X0077065Y0032805D01*
X0077065Y0031807D02*
X0076065Y0031807D01*
X0076065Y0030808D02*
X0077065Y0030808D01*
X0077065Y0029810D02*
X0076065Y0029810D01*
X0076065Y0028811D02*
X0077065Y0028811D01*
X0077065Y0027813D02*
X0076065Y0027813D01*
X0070798Y0030808D02*
X0030900Y0030808D01*
X0030900Y0031807D02*
X0071530Y0031807D01*
X0072657Y0032805D02*
X0030900Y0032805D01*
X0030286Y0033804D02*
X0074772Y0033804D01*
X0081340Y0035801D02*
X0028289Y0035801D01*
X0028983Y0036799D02*
X0081154Y0036799D01*
X0081154Y0037798D02*
X0029981Y0037798D01*
X0030900Y0038796D02*
X0081310Y0038796D01*
X0081754Y0034802D02*
X0029288Y0034802D01*
X0030900Y0029810D02*
X0070300Y0029810D01*
X0069983Y0028811D02*
X0030900Y0028811D01*
X0029996Y0027813D02*
X0069825Y0027813D01*
X0089782Y0032805D02*
X0092735Y0032805D01*
X0090780Y0033804D02*
X0094850Y0033804D01*
X0100551Y0032805D02*
X0101705Y0032805D01*
X0101678Y0031807D02*
X0101705Y0031807D01*
X0097143Y0025816D02*
X0096143Y0025816D01*
X0096143Y0024817D02*
X0097143Y0024817D01*
X0097143Y0023819D02*
X0096143Y0023819D01*
X0096143Y0022820D02*
X0097143Y0022820D01*
X0098566Y0020823D02*
X0101705Y0020823D01*
X0101705Y0021822D02*
X0100597Y0021822D01*
X0095122Y0040793D02*
X0090853Y0040793D01*
X0089855Y0041792D02*
X0092830Y0041792D01*
X0100692Y0052776D02*
X0101705Y0052776D01*
X0101705Y0053774D02*
X0098831Y0053774D01*
X0022986Y0015831D02*
X0018014Y0015831D01*
X0019013Y0016829D02*
X0021987Y0016829D01*
X0020989Y0017828D02*
X0020011Y0017828D01*
D14*
X0020504Y0016335D03*
X0011004Y0016335D03*
X0011004Y0025835D03*
X0011004Y0035835D03*
X0011004Y0045835D03*
X0010504Y0054835D03*
X0032004Y0050835D03*
X0033504Y0047335D03*
X0054504Y0045335D03*
X0054504Y0049835D03*
X0061504Y0049835D03*
X0068504Y0049835D03*
X0068504Y0045335D03*
X0061504Y0045335D03*
X0061504Y0054335D03*
X0068504Y0054335D03*
X0082004Y0054335D03*
X0090504Y0054335D03*
X0100504Y0054335D03*
X0086504Y0047335D03*
X0089504Y0043335D03*
X0083504Y0043335D03*
X0093504Y0037835D03*
X0100004Y0037835D03*
X0090004Y0031835D03*
X0083504Y0031335D03*
X0086504Y0027335D03*
X0086504Y0021335D03*
X0084504Y0016335D03*
X0092004Y0016335D03*
X0100004Y0016335D03*
X0076504Y0016335D03*
X0067504Y0016335D03*
X0067504Y0022335D03*
X0067504Y0028835D03*
X0062504Y0028835D03*
X0053504Y0031335D03*
X0046704Y0035635D03*
X0035004Y0028835D03*
X0030504Y0016335D03*
X0071004Y0033835D03*
X0079004Y0035335D03*
X0054504Y0054335D03*
M02*
